<svg xmlns="http://www.w3.org/2000/svg" viewBox="0 0 1060 600" font-family="'Segoe UI',Helvetica,Arial,sans-serif" role="img">
  <title>GraphRAG: per-query rebuild vs fingerprint-memoized projection</title>
  <desc>Before: each relational query triggers a full graph rebuild (builds=3). After: a (stations, runs) fingerprint serves a cached graph, rebuilding only on state change (builds=1).</desc>
  <defs>
    <marker id="arrow" markerWidth="9" markerHeight="9" refX="7" refY="3" orient="auto" markerUnits="strokeWidth">
      <path d="M0,0 L7,3 L0,6 Z" fill="#64748b"/>
    </marker>
    <marker id="arrowR" markerWidth="9" markerHeight="9" refX="7" refY="3" orient="auto" markerUnits="strokeWidth">
      <path d="M0,0 L7,3 L0,6 Z" fill="#dc2626"/>
    </marker>
    <marker id="arrowG" markerWidth="9" markerHeight="9" refX="7" refY="3" orient="auto" markerUnits="strokeWidth">
      <path d="M0,0 L7,3 L0,6 Z" fill="#059669"/>
    </marker>
  </defs>

  <rect x="0" y="0" width="1060" height="600" fill="#ffffff"/>
  <text x="530" y="40" text-anchor="middle" font-size="25" font-weight="700" fill="#0f172a">GraphRAG typed graph: per-query rebuild → fingerprint-memoized projection</text>
  <text x="530" y="68" text-anchor="middle" font-size="15" fill="#64748b">OntologyGraphBuilder.build — cached on a (stations, runs) content fingerprint; rebuilds only on state change</text>

  <!-- ============ BEFORE PANEL ============ -->
  <rect x="24" y="92" width="492" height="476" rx="14" fill="#fef2f2" stroke="#fecaca" stroke-width="1.5"/>
  <rect x="24" y="92" width="492" height="46" rx="14" fill="#dc2626"/>
  <rect x="24" y="120" width="492" height="18" fill="#dc2626"/>
  <text x="48" y="122" font-size="19" font-weight="700" fill="#ffffff">Before — Build on every query</text>

  <!-- row 1 -->
  <rect x="48" y="168" width="118" height="44" rx="8" fill="#ffffff" stroke="#cbd5e1" stroke-width="1.5"/>
  <text x="107" y="195" text-anchor="middle" font-size="14" fill="#334155">Relational Q1</text>
  <line x1="166" y1="190" x2="214" y2="190" stroke="#dc2626" stroke-width="2" marker-end="url(#arrowR)"/>
  <rect x="216" y="166" width="150" height="48" rx="8" fill="#fde8e8" stroke="#dc2626" stroke-width="1.5"/>
  <text x="291" y="186" text-anchor="middle" font-size="13.5" font-weight="600" fill="#b91c1c">build() full rebuild</text>
  <text x="291" y="203" text-anchor="middle" font-size="11.5" fill="#b91c1c">allocates all nodes+edges</text>
  <line x1="366" y1="190" x2="410" y2="190" stroke="#dc2626" stroke-width="2" marker-end="url(#arrowR)"/>
  <rect x="412" y="170" width="78" height="40" rx="8" fill="#dbeafe" stroke="#3b82f6" stroke-width="1.5"/>
  <text x="451" y="194" text-anchor="middle" font-size="13" fill="#1d4ed8">Graph</text>

  <!-- row 2 -->
  <rect x="48" y="236" width="118" height="44" rx="8" fill="#ffffff" stroke="#cbd5e1" stroke-width="1.5"/>
  <text x="107" y="263" text-anchor="middle" font-size="14" fill="#334155">Relational Q2</text>
  <line x1="166" y1="258" x2="214" y2="258" stroke="#dc2626" stroke-width="2" marker-end="url(#arrowR)"/>
  <rect x="216" y="234" width="150" height="48" rx="8" fill="#fde8e8" stroke="#dc2626" stroke-width="1.5"/>
  <text x="291" y="254" text-anchor="middle" font-size="13.5" font-weight="600" fill="#b91c1c">build() full rebuild</text>
  <text x="291" y="271" text-anchor="middle" font-size="11.5" fill="#b91c1c">re-runs even if unchanged</text>
  <line x1="366" y1="258" x2="410" y2="258" stroke="#dc2626" stroke-width="2" marker-end="url(#arrowR)"/>
  <rect x="412" y="238" width="78" height="40" rx="8" fill="#dbeafe" stroke="#3b82f6" stroke-width="1.5"/>
  <text x="451" y="262" text-anchor="middle" font-size="13" fill="#1d4ed8">Graph</text>

  <!-- row 3 -->
  <rect x="48" y="304" width="118" height="44" rx="8" fill="#ffffff" stroke="#cbd5e1" stroke-width="1.5"/>
  <text x="107" y="331" text-anchor="middle" font-size="14" fill="#334155">Relational Q3</text>
  <line x1="166" y1="326" x2="214" y2="326" stroke="#dc2626" stroke-width="2" marker-end="url(#arrowR)"/>
  <rect x="216" y="302" width="150" height="48" rx="8" fill="#fde8e8" stroke="#dc2626" stroke-width="1.5"/>
  <text x="291" y="322" text-anchor="middle" font-size="13.5" font-weight="600" fill="#b91c1c">build() full rebuild</text>
  <text x="291" y="339" text-anchor="middle" font-size="11.5" fill="#b91c1c">redundant cost</text>
  <line x1="366" y1="326" x2="410" y2="326" stroke="#dc2626" stroke-width="2" marker-end="url(#arrowR)"/>
  <rect x="412" y="306" width="78" height="40" rx="8" fill="#dbeafe" stroke="#3b82f6" stroke-width="1.5"/>
  <text x="451" y="330" text-anchor="middle" font-size="13" fill="#1d4ed8">Graph</text>

  <rect x="48" y="380" width="442" height="68" rx="10" fill="#ffffff" stroke="#fecaca" stroke-width="1.5"/>
  <text x="269" y="408" text-anchor="middle" font-size="15" font-weight="700" fill="#b91c1c">rebuilds = number of queries</text>
  <text x="269" y="430" text-anchor="middle" font-size="14" fill="#7f1d1d">O(queries) · no persistence / reuse</text>

  <text x="270" y="498" text-anchor="middle" font-size="13" fill="#94a3b8">3 queries → 3 builds</text>
  <text x="270" y="540" text-anchor="middle" font-size="34" font-weight="800" fill="#dc2626">builds = 3</text>

  <!-- ============ AFTER PANEL ============ -->
  <rect x="544" y="92" width="492" height="476" rx="14" fill="#ecfdf5" stroke="#a7f3d0" stroke-width="1.5"/>
  <rect x="544" y="92" width="492" height="46" rx="14" fill="#059669"/>
  <rect x="544" y="120" width="492" height="18" fill="#059669"/>
  <text x="568" y="122" font-size="19" font-weight="700" fill="#ffffff">After — Memoized projection</text>

  <!-- queries column -->
  <rect x="566" y="170" width="120" height="40" rx="8" fill="#ffffff" stroke="#cbd5e1" stroke-width="1.5"/>
  <text x="626" y="194" text-anchor="middle" font-size="13.5" fill="#334155">Q1 (first)</text>
  <rect x="566" y="226" width="120" height="40" rx="8" fill="#ffffff" stroke="#cbd5e1" stroke-width="1.5"/>
  <text x="626" y="250" text-anchor="middle" font-size="13.5" fill="#334155">Q2 (same state)</text>
  <rect x="566" y="282" width="120" height="40" rx="8" fill="#ffffff" stroke="#cbd5e1" stroke-width="1.5"/>
  <text x="626" y="306" text-anchor="middle" font-size="13.5" fill="#334155">Q3 (same state)</text>

  <!-- fingerprint gate -->
  <rect x="722" y="200" width="132" height="92" rx="10" fill="#fffbeb" stroke="#f59e0b" stroke-width="1.5"/>
  <text x="788" y="232" text-anchor="middle" font-size="13.5" font-weight="700" fill="#b45309">fingerprint</text>
  <text x="788" y="251" text-anchor="middle" font-size="11.5" fill="#b45309">sha1(stations,</text>
  <text x="788" y="267" text-anchor="middle" font-size="11.5" fill="#b45309">runs)</text>
  <text x="788" y="284" text-anchor="middle" font-size="11.5" fill="#b45309">match? → LRU lookup</text>

  <line x1="686" y1="190" x2="720" y2="226" stroke="#059669" stroke-width="2" marker-end="url(#arrowG)"/>
  <line x1="686" y1="246" x2="720" y2="246" stroke="#059669" stroke-width="2" marker-end="url(#arrowG)"/>
  <line x1="686" y1="302" x2="720" y2="266" stroke="#059669" stroke-width="2" marker-end="url(#arrowG)"/>

  <!-- cache box -->
  <rect x="892" y="196" width="120" height="100" rx="10" fill="#ffffff" stroke="#059669" stroke-width="2"/>
  <text x="952" y="222" text-anchor="middle" font-size="13.5" font-weight="700" fill="#047857">LRU cache</text>
  <rect x="912" y="234" width="80" height="44" rx="8" fill="#dbeafe" stroke="#3b82f6" stroke-width="1.5"/>
  <text x="952" y="254" text-anchor="middle" font-size="13" fill="#1d4ed8">Graph</text>
  <text x="952" y="270" text-anchor="middle" font-size="10.5" fill="#1d4ed8">(shared read-only)</text>

  <line x1="854" y1="246" x2="890" y2="246" stroke="#059669" stroke-width="2" marker-end="url(#arrowG)"/>
  <text x="872" y="238" text-anchor="middle" font-size="11" font-weight="700" fill="#047857">HIT</text>
  <text x="872" y="285" text-anchor="middle" font-size="10.5" fill="#047857">reuse</text>

  <!-- miss / state change -->
  <rect x="566" y="346" width="160" height="46" rx="8" fill="#fff7ed" stroke="#fb923c" stroke-width="1.5"/>
  <text x="646" y="366" text-anchor="middle" font-size="12.5" font-weight="600" fill="#c2410c">+ new run / state change</text>
  <text x="646" y="383" text-anchor="middle" font-size="11.5" fill="#c2410c">fingerprint changes → MISS</text>
  <path d="M726 369 H788 V296" fill="none" stroke="#fb923c" stroke-width="2" marker-end="url(#arrow)"/>
  <text x="700" y="338" font-size="11" font-weight="700" fill="#c2410c">MISS → one _build, then cache refresh</text>

  <rect x="566" y="408" width="446" height="40" rx="10" fill="#ffffff" stroke="#a7f3d0" stroke-width="1.5"/>
  <text x="789" y="433" text-anchor="middle" font-size="14.5" font-weight="700" fill="#047857">rebuilds = number of state changes · O(state changes)</text>

  <text x="789" y="498" text-anchor="middle" font-size="13" fill="#94a3b8">3 same-state queries → 1 build (then cache HIT)</text>
  <text x="789" y="540" text-anchor="middle" font-size="34" font-weight="800" fill="#059669">builds = 1</text>
</svg>
